<svg width="12" height="15" viewBox="0 0 12 15" fill="none" xmlns="http://www.w3.org/2000/svg">
<path d="M9.9375 0.25H2.0625C1.76413 0.25 1.47798 0.368526 1.267 0.579505C1.05603 0.790483 0.9375 1.07663 0.9375 1.375V13.75C0.93755 13.8504 0.964463 13.9489 1.01545 14.0354C1.06643 14.1219 1.13963 14.1931 1.22744 14.2418C1.31525 14.2904 1.41448 14.3147 1.51483 14.312C1.61519 14.3094 1.713 14.2799 1.79812 14.2267L6 11.6005L10.2026 14.2267C10.2877 14.2797 10.3854 14.309 10.4857 14.3116C10.5859 14.3142 10.685 14.2899 10.7727 14.2412C10.8604 14.1926 10.9335 14.1214 10.9845 14.0351C11.0354 13.9487 11.0624 13.8503 11.0625 13.75V1.375C11.0625 1.07663 10.944 0.790483 10.733 0.579505C10.522 0.368526 10.2359 0.25 9.9375 0.25ZM9.9375 12.7354L6.29742 10.4608C6.20802 10.4049 6.10472 10.3753 5.9993 10.3753C5.89387 10.3753 5.79057 10.4049 5.70117 10.4608L2.0625 12.7354V1.375H9.9375V12.7354Z" fill="black"/>
</svg>
