<svg width="16" height="14" viewBox="0 0 16 14" fill="none" xmlns="http://www.w3.org/2000/svg">
<path d="M15.7104 6.47772L10.0854 0.852718C10.0068 0.774004 9.9066 0.720374 9.79749 0.698611C9.68838 0.676848 9.57527 0.687929 9.47246 0.730453C9.36965 0.772976 9.28176 0.845032 9.21991 0.937509C9.15805 1.02998 9.12501 1.13873 9.12496 1.24998V4.08709C7.30105 4.24319 5.2866 5.13616 3.62933 6.5417C1.63386 8.23483 0.391442 10.4166 0.130582 12.6849C0.110197 12.8613 0.145954 13.0395 0.232763 13.1944C0.319573 13.3492 0.453012 13.4728 0.614091 13.5474C0.77517 13.622 0.955681 13.6439 1.12994 13.61C1.30419 13.5761 1.46331 13.4881 1.58464 13.3585C2.35808 12.5351 5.11011 9.93147 9.12496 9.70225V12.5C9.12501 12.6112 9.15805 12.72 9.21991 12.8125C9.28176 12.9049 9.36965 12.977 9.47246 13.0195C9.57527 13.062 9.68838 13.0731 9.79749 13.0514C9.9066 13.0296 10.0068 12.976 10.0854 12.8972L15.7104 7.27225C15.8156 7.1668 15.8747 7.02393 15.8747 6.87498C15.8747 6.72604 15.8156 6.58317 15.7104 6.47772ZM10.25 11.1422V9.12498C10.25 8.9758 10.1907 8.83273 10.0852 8.72724C9.97972 8.62175 9.83664 8.56248 9.68746 8.56248C7.71308 8.56248 5.79004 9.07787 3.97175 10.0953C3.0457 10.6158 2.18287 11.2415 1.40043 11.96C1.80824 10.2837 2.83621 8.68975 4.35707 7.39952C5.98972 6.01506 7.98238 5.18748 9.68746 5.18748C9.83664 5.18748 9.97972 5.12822 10.0852 5.02273C10.1907 4.91724 10.25 4.77417 10.25 4.62498V2.60842L14.5172 6.87498L10.25 11.1422Z" fill="black"/>
</svg>
